<svg width="76" height="88" viewBox="0 0 76 88" fill="none" xmlns="http://www.w3.org/2000/svg">
<g id="Layer_1" clip-path="url(#clip0_430_5410)">
<path id="Vector" d="M75.2229 50.0331C75.2294 55.1661 74.1668 60.2442 72.1029 64.944L68.3871 62.0891C69.9138 58.2532 70.6958 54.1616 70.6914 50.0331C70.6874 44.1697 69.1082 38.4151 66.1188 33.371C63.1294 28.3269 58.8397 24.1786 53.6982 21.36V16.2825C60.1246 19.2783 65.5632 24.045 69.3757 30.0231C73.1883 36.0012 75.2167 42.9427 75.2229 50.0331Z" fill="#0066CC"/>
<path id="Vector_2" d="M66.679 73.7291C63.1908 77.9589 58.8102 81.3647 53.8511 83.7025C48.892 86.0402 43.4771 87.2521 37.9946 87.2511C32.5074 87.2544 27.0876 86.0423 22.1245 83.702C17.1614 81.3616 12.7782 77.9512 9.28979 73.7155L11.6099 73.6884L13.7261 71.9233C16.7872 75.3258 20.5298 78.0462 24.7108 79.9078C28.8919 81.7694 33.4178 82.7305 37.9946 82.7287C42.5268 82.7305 47.0096 81.7875 51.1569 79.9598C55.3043 78.1321 59.025 75.4599 62.0818 72.1137L63.7086 73.7382L66.679 73.7291Z" fill="#0066CC"/>
<path id="Vector_3" d="M32.5634 13.198V17.7839C17.1087 20.3782 5.29506 33.8526 5.29506 50.0323C5.29204 54.1233 6.06073 58.1781 7.56081 61.9841L3.83591 64.8254C1.8065 60.1579 0.762114 55.1219 0.768092 50.0323C0.76356 31.3467 14.5982 15.8331 32.5634 13.198Z" fill="#0066CC"/>
<path id="Vector_4" d="M51.0338 0V47.728L44.2796 42.1951V24.2095L35.0059 19.7823V11.4307L44.2796 4.64932L51.0338 0Z" fill="black"/>
<path id="Vector_5" d="M62.0997 31.8655V56.8363L53.7029 50.0323V23.5864L62.0997 31.8655Z" fill="#0066CC"/>
<path id="Vector_6" d="M32.2258 41.7715L13.3158 56.9769L13.0688 38.6062L32.1238 21.425L32.2258 41.7715Z" fill="#0066CC"/>
<path id="Vector_7" d="M75.8211 71.131L68.6454 71.1401L65.1041 71.1446L63.7967 70.0933L38.0125 49.3821L12.0991 69.9755L10.717 71.0721L7.27986 71.0495L0 71.0019L4.88496 67.0482V67.0459L8.49203 64.1276V64.1253L32.3323 44.8212L37.9944 40.2375L41.9934 43.4436L43.7154 44.8506L67.4287 64.2613L71.0222 67.2022L75.8211 71.131Z" fill="black"/>
<path id="Vector_8" d="M43.7335 44.8375L43.7154 44.8511L41.9934 43.4441L43.7335 44.8375Z" fill="#B6B6B6"/>
<path id="Vector_9" d="M41.9935 43.444L37.9944 40.238L32.3323 44.8216L32.2258 44.7355L37.9922 40.1677L41.9935 43.444Z" fill="#B6B6B6"/>
<path id="Vector_10" d="M36.5397 56.8364H32.6675V60.7086H36.5397V56.8364Z" fill="black"/>
<path id="Vector_11" d="M42.5916 56.8364H38.7217V60.7086H42.5916V56.8364Z" fill="black"/>
<path id="Vector_12" d="M36.5399 62.8376H32.6677V66.7076H36.5399V62.8376Z" fill="black"/>
<path id="Vector_13" d="M42.5913 62.8376H38.7214V66.7076H42.5913V62.8376Z" fill="black"/>
<path id="Vector_14" d="M63.7537 73.7813L63.7107 73.7383" stroke="#B6B6B6" stroke-miterlimit="10"/>
<path id="Vector_15" d="M62.0837 72.1149L62.0293 72.0605" stroke="#B6B6B6" stroke-miterlimit="10"/>
<path id="Vector_16" d="M66.8441 73.7383H66.6787" stroke="#B6B6B6" stroke-miterlimit="10"/>
<path id="Vector_17" d="M63.7128 73.7383H63.679" stroke="#B6B6B6" stroke-miterlimit="10"/>
<path id="Vector_18" d="M11.6799 73.689H11.6096" stroke="#B6B6B6" stroke-miterlimit="10"/>
<path id="Vector_19" d="M11.6105 73.689L11.5803 73.7145" stroke="#B6B6B6" stroke-miterlimit="10"/>
</g>
<defs>
<clipPath id="clip0_430_5410">
<rect width="75.8211" height="87.2608" fill="white"/>
</clipPath>
</defs>
</svg>
