<svg width="102" height="19" viewBox="0 0 102 19" fill="none" xmlns="http://www.w3.org/2000/svg">
<g id="REAL ESTATE">
<path id="Vector" d="M96.0277 18.575V16.4846H101.462V18.575H96.0277ZM96.0277 10.138V8.04761H101.462V10.138H96.0277ZM96.0277 14.0633V12.0179H101.154V14.0633H96.0277ZM94.3035 8.04761H96.7974V18.575H94.3035V8.04761Z" fill="#0066CC"/>
<path id="Vector_2" d="M84.6189 10.3185V8.04761H93.0408V10.3185H90.1068V18.575H87.5377V10.3185H84.6189Z" fill="#0066CC"/>
<path id="Vector_3" d="M77.3657 16.5119L77.5508 14.5405H82.9039L83.0736 16.5119H77.3657ZM80.1888 11.8051L78.677 15.2588L78.8004 15.8242L77.4583 18.5749H74.5117L80.1888 7.20532L85.8813 18.5749H82.9194L81.6235 15.9312L81.7161 15.2741L80.1888 11.8051Z" fill="#0066CC"/>
<path id="Vector_4" d="M67.7747 10.3185V8.04761H76.1966V10.3185H73.2626V18.575H70.6934V10.3185H67.7747Z" fill="#0066CC"/>
<path id="Vector_5" d="M60.3088 14.8707C60.522 15.261 60.7606 15.5999 61.0246 15.8875C61.2987 16.1751 61.5932 16.3959 61.9079 16.5499C62.2328 16.704 62.5729 16.781 62.9283 16.781C63.3039 16.781 63.6136 16.6886 63.8573 16.5037C64.101 16.3086 64.2228 16.0467 64.2228 15.718C64.2228 15.4407 64.1517 15.2199 64.0096 15.0556C63.8674 14.881 63.639 14.7166 63.3242 14.5626C63.0095 14.4085 62.5932 14.2339 62.0754 14.0388C61.8216 13.9463 61.5272 13.8179 61.1921 13.6536C60.8672 13.4893 60.5575 13.2787 60.2631 13.022C59.9687 12.7549 59.725 12.4365 59.5321 12.0668C59.3392 11.6868 59.2427 11.2297 59.2427 10.6957C59.2427 10.0589 59.4052 9.50941 59.7301 9.04723C60.0651 8.58505 60.5119 8.23585 61.0703 7.99963C61.6388 7.75313 62.2683 7.62988 62.9587 7.62988C63.6694 7.62988 64.2837 7.748 64.8015 7.98422C65.3295 8.22044 65.766 8.51829 66.1113 8.87777C66.4565 9.23724 66.7204 9.60185 66.9032 9.97159L64.9386 11.0808C64.7863 10.8241 64.6086 10.6032 64.4055 10.4184C64.2126 10.2232 63.9943 10.0743 63.7507 9.97159C63.5172 9.85861 63.2633 9.80212 62.9892 9.80212C62.6237 9.80212 62.3445 9.88429 62.1516 10.0486C61.9587 10.2027 61.8622 10.3978 61.8622 10.634C61.8622 10.8805 61.9536 11.0962 62.1363 11.2811C62.3292 11.466 62.5983 11.6354 62.9435 11.7895C63.2989 11.9436 63.7253 12.1079 64.2228 12.2825C64.5985 12.4263 64.9487 12.5957 65.2736 12.7909C65.5985 12.9758 65.8828 13.2017 66.1265 13.4687C66.3803 13.7358 66.5783 14.0439 66.7204 14.3931C66.8626 14.7423 66.9336 15.1429 66.9336 15.5948C66.9336 16.1391 66.822 16.627 66.5986 17.0583C66.3854 17.4794 66.0909 17.8338 65.7153 18.1213C65.3498 18.4089 64.9284 18.6246 64.4512 18.7684C63.9842 18.9225 63.5019 18.9995 63.0044 18.9995C62.314 18.9995 61.6693 18.8762 61.0703 18.6297C60.4814 18.373 59.9687 18.0289 59.5321 17.5975C59.0955 17.1662 58.7554 16.6937 58.5117 16.1802L60.3088 14.8707Z" fill="#0066CC"/>
<path id="Vector_6" d="M50.8537 18.575V16.0665H57.2471V18.575H50.8537ZM50.8537 8.45067V5.94214H57.2471V8.45067H50.8537ZM50.8537 13.1609V10.7065H56.8849V13.1609H50.8537ZM48.8252 5.94214H51.7593V18.575H48.8252V5.94214Z" fill="#0066CC"/>
<path id="Vector_7" d="M37.8772 8.04761H40.4075V16.3943H44.6147V18.575H37.8772V8.04761Z" fill="black"/>
<path id="Vector_8" d="M28.0991 16.5119L28.2842 14.5405H33.6373L33.807 16.5119H28.0991ZM30.9222 11.8051L29.4104 15.2588L29.5338 15.8242L28.1916 18.5749H25.2451L30.9222 7.20532L36.6147 18.5749H33.6528L32.3569 15.9312L32.4495 15.2741L30.9222 11.8051Z" fill="black"/>
<path id="Vector_9" d="M18.9676 18.575V16.4846H24.402V18.575H18.9676ZM18.9676 10.138V8.04761H24.402V10.138H18.9676ZM18.9676 14.0633V12.0179H24.0941V14.0633H18.9676ZM17.2434 8.04761H19.7374V18.575H17.2434V8.04761Z" fill="black"/>
<path id="Vector_10" d="M5.22442 10.5657H9.6278L15.1383 18.575H10.1562L5.22442 10.5657ZM0.821045 0.888916H5.07345V18.575H0.821045V0.888916ZM3.48823 4.50192V0.888916H7.2374C8.74713 0.888916 10.0052 1.13315 11.0117 1.62162C12.0182 2.1101 12.7815 2.79227 13.3015 3.66815C13.8215 4.52719 14.0815 5.5294 14.0815 6.67478C14.0815 7.80332 13.8215 8.80553 13.3015 9.68141C12.7815 10.5404 12.0182 11.2142 11.0117 11.7027C10.0052 12.1911 8.74713 12.4354 7.2374 12.4354H3.48823V9.12556H6.93545C7.50579 9.12556 7.99226 9.04134 8.39486 8.8729C8.81423 8.68762 9.13295 8.42654 9.35102 8.08966C9.56909 7.73594 9.67813 7.31485 9.67813 6.82637C9.67813 6.3379 9.56909 5.92523 9.35102 5.58835C9.13295 5.23463 8.81423 4.96513 8.39486 4.77985C7.99226 4.59456 7.50579 4.50192 6.93545 4.50192H3.48823Z" fill="black"/>
</g>
</svg>
